<svg width="146" height="13" viewBox="0 0 146 13" fill="none" xmlns="http://www.w3.org/2000/svg">
<path d="M41.2863 7.23808V3.2861C41.2452 3.28143 41.1812 3.27396 41.1142 3.27396C40.9785 3.26555 40.8972 3.25621 40.8609 3.25621C40.3178 3.25621 39.8847 3.48505 39.5664 3.9418C39.248 4.40042 39.0845 5.02344 39.0845 5.80057C39.0845 6.50017 39.2155 7.0522 39.4688 7.4566C39.7203 7.8527 40.0683 8.0544 40.5091 8.0544C40.7777 8.0544 40.9689 7.9835 41.0951 7.8489C41.2242 7.7144 41.2863 7.5136 41.2863 7.23808ZM36.3597 10.7118L37.6102 9.0343L37.9257 9.1837C37.8818 9.2724 37.8502 9.3546 37.8292 9.4219C37.8091 9.4919 37.7947 9.5508 37.7947 9.6096C37.7947 10.0103 38.0232 10.3223 38.4621 10.5549C38.9028 10.7847 39.5042 10.8986 40.2681 10.8986C40.8533 10.8986 41.3141 10.7968 41.6812 10.5941C42.0331 10.3905 42.2128 10.1355 42.2128 9.8095C42.2128 9.6003 42.1583 9.4387 42.034 9.3276C41.9193 9.2192 41.7281 9.1435 41.4613 9.0968C41.3514 9.0866 41.0502 9.0716 40.5702 9.0604C40.0932 9.0483 39.684 9.0128 39.3407 8.9586C38.4984 8.8297 37.8062 8.4542 37.267 7.8396C36.722 7.21659 36.4505 6.50017 36.4505 5.68568C36.4505 4.60498 36.789 3.78395 37.4726 3.24874C38.1523 2.70418 39.1763 2.43424 40.5406 2.43424H44.5045V2.75742C44.2215 2.78451 44.0322 2.85737 43.928 2.97786C43.8219 3.09555 43.7741 3.36269 43.7741 3.77554V7.02605C43.7741 7.37165 43.7913 7.5986 43.8209 7.7154C43.8639 7.8321 43.9528 7.9788 44.1087 8.16C44.1297 8.1955 44.1699 8.2347 44.2091 8.2842C44.5743 8.7017 44.7579 9.0912 44.7579 9.4434C44.7579 10.1719 44.3525 10.7651 43.5417 11.234C42.7272 11.7057 41.6812 11.9373 40.3991 11.9373C39.6027 11.9373 38.8723 11.8355 38.2173 11.6384C37.5557 11.4376 36.9314 11.1265 36.3597 10.7118ZM27.6001 8.9988V8.6644C27.8506 8.6485 28.0179 8.5747 28.1106 8.4309C28.2139 8.2833 28.255 8.0105 28.255 7.5949V4.06136C28.255 3.64851 28.2072 3.3683 28.1001 3.21604C27.993 3.06379 27.8133 2.97319 27.5465 2.9461L27.5389 2.61638L30.4244 2.43424C30.5037 2.59023 30.5687 2.76116 30.6156 2.95451C30.672 3.14973 30.7054 3.3767 30.7341 3.62796C31.129 3.18522 31.541 2.85737 31.9646 2.65748C32.3843 2.44825 32.8537 2.34084 33.3834 2.34084C34.0383 2.34084 34.4982 2.50149 34.7621 2.82468C35.0259 3.14132 35.1579 3.72697 35.1579 4.58443V7.30626C35.1579 7.8256 35.2105 8.1787 35.3089 8.3468C35.4141 8.5187 35.6139 8.6279 35.8941 8.6653V8.9997H31.8957V8.6653C32.1807 8.6279 32.3843 8.5187 32.4971 8.3468C32.6099 8.1787 32.6692 7.8686 32.6692 7.4352V4.92536C32.6692 4.48636 32.6224 4.17718 32.5143 3.99971C32.4101 3.82224 32.2352 3.73444 31.9914 3.73444C31.5869 3.73444 31.2733 3.92219 31.0573 4.29488C30.8431 4.67504 30.7332 5.22426 30.7332 5.94068V7.14374C30.7332 7.7257 30.7857 8.1161 30.8957 8.3001C31.0018 8.4813 31.2007 8.6065 31.4856 8.6653V8.9997L27.6001 8.9988ZM19.3319 6.93358V4.06136C19.3319 3.63543 19.2774 3.34961 19.1761 3.20764C19.069 3.06379 18.8874 2.97319 18.6187 2.9461V2.61638L21.8129 2.43424V6.68792C21.8129 7.0905 21.8684 7.38099 21.9745 7.5622C22.0883 7.7397 22.2623 7.8312 22.5023 7.8312C22.9057 7.8312 23.2155 7.6444 23.4325 7.27077C23.6457 6.90182 23.7471 6.3554 23.7471 5.65019V4.06136C23.7471 3.64291 23.6955 3.36176 23.5951 3.21604C23.4842 3.0694 23.2939 2.97693 23.0214 2.9461V2.61638L26.2329 2.43424V7.5276C26.2329 7.947 26.2769 8.2244 26.3887 8.3683C26.4977 8.5084 26.6803 8.5934 26.949 8.6279V8.9988H23.989C23.9173 8.8446 23.8609 8.6887 23.8217 8.5187C23.7825 8.3543 23.7576 8.1693 23.7461 7.9638C23.3455 8.3842 22.9306 8.6887 22.5051 8.8876C22.0778 9.0866 21.6112 9.1837 21.1045 9.1837C20.4544 9.1837 19.9954 9.0202 19.7325 8.6999C19.4658 8.3758 19.3319 7.7864 19.3319 6.93358ZM14.8403 7.23808V3.2861C14.7925 3.28143 14.737 3.27396 14.6615 3.27396C14.5314 3.26555 14.4483 3.25621 14.4129 3.25621C13.8718 3.25621 13.4358 3.48505 13.1174 3.9418C12.799 4.40042 12.6394 5.02344 12.6394 5.80057C12.6394 6.50017 12.7685 7.0522 13.0237 7.4566C13.2752 7.8527 13.6241 8.0544 14.0668 8.0544C14.3249 8.0544 14.5248 7.9835 14.6491 7.8489C14.7762 7.7144 14.8403 7.5136 14.8403 7.23808ZM9.9117 10.7118L11.1565 9.0343L11.4825 9.1837C11.4366 9.2724 11.4041 9.3546 11.3802 9.4219C11.3592 9.4919 11.3525 9.5508 11.3525 9.6096C11.3525 10.0103 11.5686 10.3223 12.0131 10.5549C12.4529 10.7847 13.0543 10.8986 13.8192 10.8986C14.4014 10.8986 14.8709 10.7968 15.2284 10.5941C15.5927 10.3905 15.7677 10.1355 15.7677 9.8095C15.7677 9.6003 15.7132 9.4387 15.5927 9.3276C15.4751 9.2192 15.2781 9.1435 15.0152 9.0968C14.9024 9.0866 14.6022 9.0716 14.128 9.0604C13.648 9.0483 13.236 9.0128 12.887 8.9586C12.0476 8.8297 11.3563 8.4542 10.8161 7.8396C10.275 7.21659 10.0044 6.50017 10.0044 5.68568C10.0044 4.60498 10.3448 3.78395 11.0236 3.24874C11.7091 2.70418 12.7321 2.43424 14.0917 2.43424H18.0479V2.75742C17.7735 2.78451 17.5832 2.85737 17.4762 2.97786C17.3796 3.09555 17.328 3.36269 17.328 3.77554V7.02605C17.328 7.37165 17.3423 7.5986 17.3796 7.7154C17.415 7.8321 17.5077 7.9788 17.6597 8.16C17.6836 8.1955 17.7228 8.2347 17.7668 8.2842C18.1273 8.7017 18.3061 9.0912 18.3061 9.4434C18.3061 10.1719 17.8997 10.7651 17.0928 11.234C16.2782 11.7057 15.2361 11.9373 13.9549 11.9373C13.1547 11.9373 12.4319 11.8355 11.7655 11.6384C11.1068 11.4376 10.4939 11.1265 9.9117 10.7118ZM3.4515 1.42266C3.4763 1.35167 3.4945 1.28816 3.5079 1.22464C3.5203 1.1686 3.5279 1.10415 3.5279 1.0397C3.5279 0.944431 3.505 0.858491 3.4438 0.791241C3.3912 0.719321 3.2927 0.662341 3.1665 0.603501V0.238281H7.2528V0.603501C7.14 0.648331 7.0511 0.702511 6.9804 0.775361C6.9211 0.847291 6.88 0.922011 6.88 1.00327C6.88 1.05184 6.8905 1.10508 6.902 1.16953C6.9106 1.22838 6.9335 1.31244 6.9698 1.4292L9.013 7.3156C9.2042 7.8667 9.3753 8.216 9.5149 8.3739C9.6574 8.5364 9.8486 8.6158 10.0752 8.6261V8.9969H5.4898V8.6261C5.7346 8.585 5.9086 8.5065 6.0195 8.3879C6.1227 8.2749 6.1734 8.1067 6.1734 7.8919C6.1734 7.32588 5.8837 6.82336 5.2929 6.39836C4.7058 5.97057 3.9591 5.73052 3.0585 5.6726L2.5365 7.11665C2.4677 7.30439 2.4237 7.4744 2.3864 7.6248C2.3529 7.7798 2.3309 7.9041 2.3309 8.0096C2.3309 8.2151 2.3912 8.3673 2.5088 8.471C2.6283 8.5747 2.8023 8.627 3.0337 8.627V8.9978H0V8.627C0.304 8.571 0.5517 8.4411 0.74 8.2441C0.9236 8.0414 1.1397 7.6248 1.3787 6.99055L3.4515 1.42266ZM3.4218 4.7152C3.8004 4.7619 4.1475 4.82915 4.4668 4.93377C4.7823 5.03558 5.0768 5.17382 5.3474 5.34755L4.3636 2.19606L3.4218 4.7152Z" fill="white"/>
<path d="M91.2265 7.19781V4.32373C91.2265 3.90621 91.1745 3.61946 91.0685 3.47468C90.9585 3.32897 90.7755 3.24864 90.5125 3.21595V2.88623L93.7055 2.70035V6.95683C93.7055 7.36127 93.7595 7.6499 93.8665 7.8311C93.9785 8.0104 94.1495 8.0992 94.3935 8.0992C94.8005 8.0992 95.1095 7.9114 95.3285 7.5415C95.5385 7.16606 95.6415 6.62244 95.6415 5.9191V4.32373C95.6415 3.91275 95.5895 3.62693 95.4845 3.48309C95.3775 3.34018 95.1915 3.24864 94.9255 3.21595V2.88623L98.1295 2.70035V7.7984C98.1295 8.2169 98.1765 8.4943 98.2805 8.64C98.3925 8.7726 98.5775 8.866 98.8375 8.9015V9.2649H95.8845C95.8095 9.1145 95.7525 8.952 95.7115 8.7885C95.6715 8.6222 95.6515 8.4373 95.6405 8.2346C95.2365 8.6503 94.8245 8.9594 94.3985 9.1565C93.9695 9.3499 93.5075 9.4517 92.9975 9.4517C92.3515 9.4517 91.8965 9.292 91.6245 8.9697C91.3575 8.6409 91.2265 8.0553 91.2265 7.19781ZM83.9305 9.7506L84.3075 9.8655C84.2885 9.9477 84.2755 10.0177 84.2675 10.084C84.2545 10.1522 84.2485 10.2167 84.2485 10.2774C84.2485 10.51 84.3135 10.6893 84.4385 10.8201C84.5575 10.9527 84.7255 11.0237 84.9385 11.0237C85.2485 11.0237 85.5095 10.8808 85.7245 10.5894C85.9435 10.3026 86.0475 9.9477 86.0475 9.518C86.0475 9.2994 86.0155 9.0594 85.9445 8.7922C85.8775 8.5186 85.7545 8.1804 85.5835 7.7713L84.1445 4.29571C83.9765 3.87539 83.8175 3.58116 83.6735 3.40463C83.5235 3.22062 83.3485 3.08892 83.1355 3.00205V2.69942H86.8675V3.00205C86.7325 3.03381 86.6355 3.08985 86.5745 3.16457C86.5105 3.24023 86.4765 3.34391 86.4765 3.47468C86.4765 3.55688 86.5065 3.6783 86.5545 3.83429C86.6015 3.99028 86.6775 4.19016 86.7785 4.43208L87.6215 6.50848L88.4465 4.12291C88.4825 4.00896 88.5165 3.91368 88.5415 3.84083C88.5605 3.76237 88.5745 3.7194 88.5745 3.7138C88.5745 3.68484 88.5775 3.64468 88.5795 3.60451C88.5835 3.55781 88.5885 3.52418 88.5885 3.5027C88.5885 3.38594 88.5535 3.29721 88.4785 3.22155C88.4065 3.14683 88.2905 3.07771 88.1205 3.00298V2.70035H90.6585V3.00298C90.4075 3.08144 90.1935 3.20847 90.0305 3.37567C89.8715 3.55034 89.6995 3.86231 89.5145 4.30505L87.1125 10.1037C86.7995 10.8612 86.4605 11.3926 86.0945 11.7084C85.7255 12.0231 85.2725 12.181 84.7265 12.181C84.4615 12.181 84.2025 12.1362 83.9615 12.0484C83.7135 11.9605 83.4545 11.8232 83.1805 11.6262L83.9305 9.7506ZM76.1748 5.13076L76.4367 2.77694C76.4539 2.78908 76.4893 2.79749 76.5333 2.80683C76.7761 2.88436 76.931 2.92359 77.0085 2.92359C77.0735 2.92359 77.3832 2.85914 77.9607 2.72277C78.5267 2.58359 79.0679 2.51541 79.5899 2.51541C80.0048 2.51541 80.3882 2.5453 80.7534 2.61535C81.1158 2.677 81.4036 2.77134 81.6196 2.88529C81.9135 3.03567 82.1205 3.24023 82.2395 3.47094C82.3615 3.70539 82.4215 4.10143 82.4215 4.65439V7.5061C82.4215 7.9927 82.4865 8.3243 82.6175 8.5018C82.7485 8.6876 82.9725 8.8343 83.3095 8.938V9.2639H80.3958C80.3041 9.164 80.2362 9.0472 80.1798 8.9183C80.1195 8.7838 80.0689 8.6176 80.0211 8.4205C79.782 8.7698 79.4589 9.0276 79.0621 9.1948C78.6644 9.3629 78.1978 9.4489 77.6529 9.4489C76.997 9.4489 76.4798 9.291 76.1059 8.9781C75.7302 8.6633 75.538 8.2337 75.538 7.7013C75.538 6.96804 75.8899 6.37772 76.6002 5.91629C77.2991 5.43713 78.3967 5.08032 79.8815 4.83092V4.43022C79.8815 4.10423 79.7935 3.86044 79.609 3.70165C79.4321 3.54006 79.1491 3.4616 78.7667 3.4616C78.2236 3.4616 77.7551 3.60545 77.3536 3.90715C76.9501 4.19764 76.6662 4.60955 76.4989 5.12982L76.1748 5.13076ZM79.8824 5.65569C79.2572 5.82382 78.7973 6.04052 78.499 6.3142C78.2026 6.58321 78.0535 6.92507 78.0535 7.33325C78.0535 7.5481 78.1137 7.7218 78.2389 7.8526C78.3632 7.9936 78.5267 8.0553 78.715 8.0553C79.0908 8.0553 79.3786 7.8974 79.5774 7.5649C79.782 7.23518 79.8824 6.76441 79.8824 6.15728V5.65569ZM75.1154 9.2649H70.9001C70.2423 9.2649 69.747 9.2387 69.4277 9.1864C69.1017 9.1294 68.8034 9.0435 68.5299 8.9267C68.007 8.6755 67.5882 8.3056 67.2785 7.8021C66.9658 7.30243 66.8138 6.75321 66.8138 6.1442C66.8138 5.68371 66.9017 5.24751 67.0796 4.83186C67.2612 4.40873 67.5146 4.03698 67.8473 3.7138C68.2192 3.34671 68.6495 3.08238 69.1246 2.93199C69.5979 2.77788 70.2968 2.70035 71.2223 2.70035H71.9145V1.88586C71.9145 1.41509 71.8781 1.10686 71.8055 0.97422C71.7213 0.84252 71.5913 0.77246 71.3867 0.74724L71.38 0.40351L74.4032 0V8.3056C74.4032 8.4644 74.4634 8.611 74.5982 8.7409C74.7292 8.8744 74.8898 8.9389 75.0791 8.9389H75.1164L75.1154 9.2649ZM71.9135 7.04463V3.7194C71.8676 3.7194 71.8141 3.71567 71.7433 3.7138C71.62 3.70539 71.5359 3.70352 71.4881 3.70352C70.8657 3.70352 70.3876 3.90901 70.0549 4.31346C69.726 4.72724 69.5663 5.32317 69.5663 6.11338C69.5663 6.7943 69.7021 7.34259 69.9746 7.7442C70.2423 8.159 70.596 8.3588 71.0425 8.3588C71.3791 8.3588 71.6018 8.2766 71.729 8.1169C71.8495 7.9563 71.9135 7.5967 71.9135 7.04463ZM61.4387 6.16849C61.5525 6.84381 61.8049 7.37435 62.2065 7.7517C62.6061 8.1328 63.11 8.3252 63.7199 8.3252C64.2085 8.3252 64.6292 8.1888 64.9848 7.917C65.3347 7.6499 65.6283 7.23798 65.8606 6.69436L66.2182 6.75974L65.4246 9.3433C65.3271 9.3349 65.2363 9.3331 65.1502 9.3331C65.0603 9.3275 64.9781 9.3275 64.8978 9.3275C64.7649 9.3275 64.5029 9.3489 64.111 9.3975C63.7209 9.4423 63.3901 9.4638 63.131 9.4638C61.8154 9.4638 60.7398 9.1257 59.8966 8.442C59.061 7.7695 58.6422 6.90359 58.6422 5.86866C58.6422 4.90565 59.0189 4.10703 59.7723 3.47094C60.5276 2.83485 61.4913 2.51634 62.6692 2.51634C63.5631 2.51634 64.2878 2.7181 64.8452 3.11133C65.3979 3.51765 65.8482 4.16775 66.1943 5.06631L61.4387 6.16849ZM63.5736 4.83186C63.501 4.39659 63.3748 4.07621 63.1893 3.8455C63.001 3.62693 62.7658 3.51578 62.4866 3.51578C62.1634 3.51578 61.8938 3.64281 61.6758 3.90061C61.4559 4.15654 61.3441 4.48626 61.3441 4.88043C61.3441 4.92526 61.3508 5.02894 61.3603 5.20081C61.3603 5.26713 61.3699 5.31196 61.3699 5.35306L63.5736 4.83186ZM55.3084 3.60731C56.382 3.94171 57.1077 4.30505 57.4882 4.68708C57.8592 5.07004 58.0466 5.59498 58.0466 6.25722C58.0466 7.20622 57.6526 7.9824 56.8715 8.5662C56.0828 9.1584 55.032 9.4489 53.7394 9.4489C53.2174 9.4489 52.6485 9.3956 52.0338 9.291C51.4142 9.193 51.0461 9.135 50.9477 9.135C50.8215 9.135 50.7 9.1547 50.5901 9.1958C50.4687 9.2387 50.3434 9.3078 50.1886 9.4087L49.9629 5.7108L50.3272 5.69773C50.4687 6.56079 50.7985 7.22957 51.3311 7.6919C51.8512 8.1562 52.5357 8.3906 53.3761 8.3906C53.9469 8.3906 54.3867 8.2841 54.6965 8.0786C55.0062 7.8797 55.1621 7.5882 55.1621 7.22117C55.1621 6.69529 54.6639 6.2759 53.6735 5.97327C53.5587 5.93591 53.4727 5.9191 53.4182 5.89107L52.3416 5.55015C51.571 5.29795 51.005 4.98224 50.6446 4.5834C50.2918 4.18269 50.1063 3.67457 50.1063 3.05622C50.1063 2.22398 50.4151 1.56361 51.0328 1.06576C51.6437 0.56977 52.4726 0.32225 53.5233 0.32225C53.9067 0.32225 54.3972 0.36522 54.9909 0.45675C55.6 0.53708 56.0053 0.58472 56.2243 0.58472C56.3074 0.58472 56.4021 0.56884 56.4996 0.53615C56.5971 0.50626 56.7167 0.45582 56.8553 0.37829L57.1383 3.1599L56.7683 3.21501C56.449 2.62282 56.0809 2.16794 55.6392 1.84476C55.1955 1.51784 54.7299 1.35905 54.2366 1.35905C53.8637 1.35905 53.5664 1.44778 53.3274 1.62339C53.0998 1.79712 52.9822 2.01382 52.9822 2.27536C52.9822 2.5042 53.0587 2.68727 53.2231 2.82645C53.3761 2.96842 53.6945 3.1104 54.1716 3.25985L55.3084 3.60731Z" fill="white"/>
<path d="M137.424 11.9274V11.6015C137.648 11.5781 137.821 11.4959 137.917 11.3707C138.007 11.2502 138.056 10.9626 138.056 10.5254V3.62652C138.056 3.45839 137.989 3.31454 137.86 3.18378C137.727 3.05488 137.562 2.98669 137.377 2.98669H137.338V2.66071H141.545C142.871 2.66071 143.885 2.95867 144.592 3.55273C145.294 4.15052 145.646 4.99864 145.646 6.11483C145.646 7.12735 145.331 7.90541 144.706 8.46211C144.082 9.01231 143.196 9.28971 142.051 9.28971C141.821 9.28971 141.578 9.28131 141.327 9.25981C141.068 9.24301 140.806 9.21121 140.531 9.17011L140.528 10.0892C140.528 10.7113 140.594 11.1092 140.721 11.2839C140.847 11.4679 141.084 11.5781 141.424 11.6005V11.9265L137.424 11.9274ZM140.531 7.00685C140.531 7.54771 140.598 7.90541 140.726 8.08941C140.859 8.26871 141.079 8.35841 141.386 8.35841C141.836 8.35841 142.199 8.14361 142.486 7.71491C142.765 7.28894 142.902 6.72477 142.902 6.01396C142.902 5.22468 142.74 4.62782 142.406 4.21123C142.086 3.79932 141.605 3.59289 140.977 3.59289C140.938 3.59289 140.84 3.6013 140.694 3.60877C140.623 3.61437 140.577 3.62091 140.531 3.62838V7.00685ZM129.127 7.16284V4.28876C129.127 3.86563 129.083 3.58448 128.976 3.43504C128.874 3.2968 128.686 3.20619 128.415 3.17163V2.84658L131.611 2.66071V6.91532C131.611 7.31976 131.665 7.61301 131.776 7.78771C131.882 7.97551 132.058 8.05491 132.306 8.05491C132.711 8.05491 133.023 7.87741 133.232 7.50191C133.444 7.12641 133.552 6.58653 133.552 5.88132V4.28876C133.552 3.86937 133.497 3.58822 133.389 3.44344C133.286 3.2968 133.097 3.21086 132.827 3.17163V2.84658L136.034 2.66071V7.75691C136.034 8.17811 136.088 8.45371 136.191 8.59661C136.294 8.73581 136.482 8.83011 136.754 8.86091V9.22521H133.793C133.718 9.07861 133.664 8.92171 133.62 8.75351C133.585 8.58731 133.56 8.39761 133.552 8.19501C133.145 8.61151 132.733 8.92171 132.307 9.11591C131.88 9.31301 131.413 9.41201 130.906 9.41201C130.255 9.41201 129.801 9.25231 129.534 8.92731C129.265 8.60411 129.127 8.01661 129.127 7.16284ZM119.69 5.94017C119.69 4.87161 120.049 4.03096 120.779 3.40982C121.501 2.78213 122.499 2.4739 123.763 2.4739C125.017 2.4739 126.016 2.78213 126.75 3.40982C127.475 4.03096 127.845 4.87161 127.845 5.94017C127.845 7.01059 127.476 7.85591 126.75 8.48261C126.024 9.10191 125.024 9.41021 123.763 9.41021C122.499 9.41021 121.502 9.10191 120.779 8.48261C120.049 7.85591 119.69 7.01059 119.69 5.94017ZM123.673 3.48828C123.297 3.48828 122.991 3.67229 122.761 4.04591C122.529 4.41486 122.42 4.91738 122.42 5.54786C122.42 6.47911 122.537 7.18432 122.785 7.66911C123.04 8.15481 123.397 8.39671 123.865 8.39671C124.241 8.39671 124.543 8.20901 124.763 7.83071C124.993 7.45801 125.099 6.94614 125.099 6.29884C125.099 5.40215 124.976 4.71469 124.726 4.22524C124.478 3.7386 124.127 3.48828 123.673 3.48828ZM114.516 4.28876C114.516 3.87497 114.466 3.59569 114.361 3.44344C114.257 3.2968 114.077 3.20619 113.804 3.17163L113.8 2.84565L116.688 2.65977C116.765 2.81763 116.828 2.98949 116.878 3.18471C116.926 3.3846 116.97 3.6069 116.995 3.85629C117.312 3.42103 117.643 3.09317 117.984 2.88394C118.326 2.67285 118.69 2.56917 119.082 2.56917C119.194 2.56917 119.376 2.58878 119.631 2.614L119.672 2.62148L119.189 4.43634C118.965 4.32052 118.775 4.23365 118.606 4.18415C118.44 4.13091 118.282 4.10195 118.145 4.10195C117.72 4.10195 117.422 4.25046 117.25 4.54843C117.08 4.84359 116.996 5.4666 116.996 6.41467V7.37113C116.996 7.96241 117.049 8.35091 117.155 8.53121C117.268 8.71241 117.47 8.83951 117.747 8.90021V9.22151H113.864V8.90021C114.107 8.87121 114.276 8.79281 114.372 8.66201C114.468 8.53501 114.514 8.25571 114.514 7.82231V4.28876H114.516ZM109.67 5.70665C109.67 5.18919 109.615 4.83798 109.506 4.67546C109.397 4.50826 109.197 4.39711 108.914 4.342V3.98519H113.162V4.342C112.874 4.39711 112.677 4.50826 112.569 4.67546C112.456 4.83798 112.405 5.18919 112.405 5.70665V7.54771C112.405 8.06701 112.456 8.40701 112.569 8.57511C112.669 8.73481 112.873 8.84791 113.162 8.90301V9.22431H111.192C110.744 9.22431 110.253 9.23831 109.716 9.25981C109.179 9.28971 108.86 9.29901 108.766 9.29901C107.116 9.29901 105.816 8.86561 104.867 7.99511C103.921 7.12455 103.445 5.93456 103.445 4.43728C103.445 3.12867 103.836 2.11429 104.605 1.38572C105.378 0.659027 106.468 0.295677 107.856 0.295677C108.272 0.295677 108.748 0.345187 109.265 0.429247C109.783 0.517047 110.108 0.556287 110.221 0.556287C110.342 0.556287 110.467 0.538537 110.61 0.491837C110.747 0.441397 110.917 0.361067 111.114 0.248047L111.53 3.13334H111.21C110.851 2.54395 110.467 2.10588 110.049 1.8294C109.638 1.55199 109.17 1.41468 108.648 1.41468C107.862 1.41468 107.238 1.67902 106.79 2.20956C106.333 2.7345 106.108 3.46306 106.108 4.37656C106.108 5.5077 106.357 6.44829 106.858 7.20301C107.361 7.96051 107.967 8.33511 108.686 8.33511C109.053 8.33511 109.31 8.25101 109.453 8.08571C109.6 7.91751 109.672 7.54861 109.672 6.9807V5.70665H109.67Z" fill="white"/>
</svg>
