<?xml version="1.0" encoding="UTF-8"?>
<svg version="1.1" xmlns="http://www.w3.org/2000/svg" width="172" height="250">
<path d="M0 0 C3.90702643 0.69734212 6.97779648 2.54860398 10.4375 4.4375 C17.18849149 7.9539544 23.40635939 9.27413729 31 10 C47.14565037 11.63979262 61.98849825 17.61346325 76.38134766 24.89086914 C87.52632917 30.45838779 98.30979387 32.19596484 110.6875 32.1875 C111.6583252 32.18814453 112.62915039 32.18878906 113.62939453 32.18945312 C120.60935048 32.13812134 127.1869902 31.6098251 134 30 C133.875 31.8046875 133.875 31.8046875 133 34 C120.98622818 41.47285211 108.67683189 42.36230722 95 43 C95.99 44.98 95.99 44.98 97 47 C90.18479548 46.70368676 85.61649218 43.69535803 80 40 C80 42.64 80 45.28 80 48 C81.22783203 48.37898438 81.22783203 48.37898438 82.48046875 48.765625 C86.55138457 50.19338238 90.39656494 51.94918876 94.3125 53.75 C109.12765979 60.44012579 123.70986995 65.70767236 140 67 C139.4453125 68.86328125 139.4453125 68.86328125 138 71 C135.56454411 71.93785893 133.39358765 72.60685285 130.875 73.1875 C130.235625 73.35185547 129.59625 73.51621094 128.9375 73.68554688 C111.3870807 78.0379099 94.11483925 77.35774598 77.58203125 70.05859375 C75.9720165 69.35005556 74.36132323 68.64305744 72.75 67.9375 C71.54585449 67.40962891 71.54585449 67.40962891 70.31738281 66.87109375 C60.65702025 62.78565408 50.51479527 60.73916787 40 61 C40.84820312 61.08636719 41.69640625 61.17273438 42.5703125 61.26171875 C55.61532671 62.82425342 66.81405719 67.44360328 78.8203125 72.64453125 C99.41140911 81.42230831 120.85934418 78.62121549 141.69677734 72.18652344 C150.09224557 69.61091315 158.16951964 67.60753421 167 68 C167 68.99 167 69.98 167 71 C166.11006348 71.22929199 165.22012695 71.45858398 164.30322266 71.69482422 C157.41406264 73.49731945 150.57287091 75.3905451 143.7734375 77.5078125 C143.08469543 77.72153503 142.39595337 77.93525757 141.68634033 78.15545654 C138.87429754 79.02988394 136.06319977 79.90696436 133.25585938 80.79638672 C105.9098935 89.43826744 82.7386542 87.39288056 56.5625 75.9375 C40.892718 69.17458604 27.02215157 67.36629012 10 68 C10 67.01 10 66.02 10 65 C9.08476562 65.3609375 8.16953125 65.721875 7.2265625 66.09375 C6.03804687 66.5578125 4.84953125 67.021875 3.625 67.5 C1.84996094 68.19609375 1.84996094 68.19609375 0.0390625 68.90625 C-3 70 -3 70 -5 70 C-4.72600928 66.88072098 -4.02316132 66.02023288 -1.62109375 63.921875 C18.1984884 50.40078582 37.63208319 43 62 43 C62.66 37.06 63.32 31.12 64 25 C62.46730469 25.433125 60.93460937 25.86625 59.35546875 26.3125 C57.29967904 26.87573006 55.24367794 27.43818892 53.1875 28 C51.68026367 28.42925781 51.68026367 28.42925781 50.14257812 28.8671875 C38.93926559 31.89316259 26.03995475 32.68836374 15.3125 27.375 C14.1678125 26.694375 14.1678125 26.694375 13 26 C13 25.01 13 24.02 13 23 C18.445 22.01 18.445 22.01 24 21 C22.69675781 20.92652344 22.69675781 20.92652344 21.3671875 20.8515625 C20.21476562 20.77679688 19.06234375 20.70203125 17.875 20.625 C16.73804687 20.55539063 15.60109375 20.48578125 14.4296875 20.4140625 C11.04606384 20.00556124 8.18387559 19.19032431 5 18 C5 17.01 5 16.02 5 15 C6.65 14.67 8.3 14.34 10 14 C9.04287109 12.98679688 9.04287109 12.98679688 8.06640625 11.953125 C7.24011719 11.06109375 6.41382813 10.1690625 5.5625 9.25 C4.73878906 8.36828125 3.91507813 7.4865625 3.06640625 6.578125 C1.16931982 4.21124968 0.37897068 2.9490809 0 0 Z M17 62 C17 62.33 17 62.66 17 63 C18.65 63 20.3 63 22 63 C22 62.67 22 62.34 22 62 C20.35 62 18.7 62 17 62 Z " fill="#54774E" transform="translate(5,159)"/>
<path d="M0 0 C3.08413625 1.33208438 4.66851882 2.60583431 6.625 5.3125 C12.69289837 12.7048635 22.85068535 15.66062649 32.01098633 16.93579102 C46.5937267 18.98224035 59.40631602 23.60420223 72.5625 30.125 C93.64959913 40.39503648 119.40046067 43.50617071 142.08984375 36.16796875 C143.67988324 35.52981867 145.26548228 34.87733281 146.82080078 34.15869141 C151.72646465 31.90882155 151.72646465 31.90882155 155 33 C149.55780079 40.44097055 142.87490669 44.54742118 135 49 C135.99 49.33 136.98 49.66 138 50 C137.67 51.32 137.34 52.64 137 54 C136.21753906 53.98839844 135.43507812 53.97679687 134.62890625 53.96484375 C133.61699219 53.95582031 132.60507813 53.94679687 131.5625 53.9375 C130.55316406 53.92589844 129.54382813 53.91429687 128.50390625 53.90234375 C126.05978933 53.71387324 126.05978933 53.71387324 125 55 C129.95 55.66 134.9 56.32 140 57 C140 57.99 140 58.98 140 60 C119.9224283 67.70098641 104.632753 62.95405637 85.75 54.5625 C79.46387337 51.71434795 73.32145266 48.72806432 67.38671875 45.19140625 C61.99077319 42.49784914 56.65349393 41.7286752 50.6875 41.4375 C49.65870728 41.38009644 49.65870728 41.38009644 48.60913086 41.3215332 C44.92525089 41.11994437 41.24226352 40.97263973 37.5546875 40.859375 C26.95319218 40.48095619 17.23332888 38.78501989 7 36 C7 34.68 7 33.36 7 32 C13.6 32 20.2 32 27 32 C27 31.34 27 30.68 27 30 C26.42765625 29.8865625 25.8553125 29.773125 25.265625 29.65625 C14.9480465 26.66771002 7.53899657 17.05830306 2.5 8.125 C0 3.45744681 0 3.45744681 0 0 Z " fill="#55774F" transform="translate(5,125)"/>
<path d="M0 0 C0.87567627 0.30236572 0.87567627 0.30236572 1.76904297 0.61083984 C4.46880799 1.5388341 7.17183958 2.45694552 9.875 3.375 C11.25171875 3.85066406 11.25171875 3.85066406 12.65625 4.3359375 C18.71249558 6.3831191 24.69997295 7.91260745 31 9 C30.21753906 8.68546875 29.43507813 8.3709375 28.62890625 8.046875 C27.61699219 7.61890625 26.60507812 7.1909375 25.5625 6.75 C24.55316406 6.33234375 23.54382813 5.9146875 22.50390625 5.484375 C20 4 20 4 19.15234375 1.828125 C19.07693359 0.92320313 19.07693359 0.92320313 19 0 C33.55965119 1.31946839 45.61576716 6.29762285 58.625 12.625 C76.70803725 21.34099871 94.14348639 23.33440599 114 21 C114.84820312 20.90332031 115.69640625 20.80664062 116.5703125 20.70703125 C118.3824424 20.48919682 120.19177722 20.24818744 122 20 C121.66237149 22.89850888 121.15990481 23.85997036 118.92578125 25.81640625 C118.06339844 26.39261719 117.20101562 26.96882813 116.3125 27.5625 C115.41402344 28.16320312 114.51554687 28.76390625 113.58984375 29.3828125 C110.78307991 31.13545236 108.01764479 32.65000102 105 34 C109.07723734 35.95031692 112.31692422 36.21581971 116.8125 36.125 C117.97394531 36.10695312 119.13539063 36.08890625 120.33203125 36.0703125 C121.21246094 36.04710937 122.09289062 36.02390625 123 36 C123 37.32 123 38.64 123 40 C104.65245526 46.72179635 88.34617581 43.59849942 71 36 C69.38883301 35.29689697 69.38883301 35.29689697 67.74511719 34.57958984 C63.34613956 32.64988054 58.95551874 30.70153582 54.56445312 28.75390625 C53.50033203 28.28339844 52.43621094 27.81289062 51.33984375 27.328125 C50.38456787 26.9043457 49.42929199 26.48056641 48.44506836 26.04394531 C44.37121941 24.30457655 41.41844679 23.89916135 37.01171875 23.97265625 C35.23958008 23.99102539 35.23958008 23.99102539 33.43164062 24.00976562 C30.94720496 24.04475768 28.46282262 24.08378191 25.97851562 24.12695312 C24.79322266 24.13791016 23.60792969 24.14886719 22.38671875 24.16015625 C20.76576294 24.18541382 20.76576294 24.18541382 19.11206055 24.21118164 C15.78269805 23.98525408 13.10807988 23.1830718 10 22 C10.33 21.01 10.66 20.02 11 19 C14.63 18.67 18.26 18.34 22 18 C19.82287773 16.91143886 17.64287861 15.82827547 15.44921875 14.7734375 C9.03516197 11.52558414 4.0111396 8.07831393 0 2 C0 1.34 0 0.68 0 0 Z " fill="#53764D" transform="translate(22,94)"/>
<path d="M0 0 C3.68870278 0.42561955 5.53095148 2.31092503 8.25805664 4.67260742 C14.46570576 9.40294915 21.84066977 10.75132929 29.375 11.875 C42.59119872 14.07060875 55.44385221 17.30255523 67.2890625 23.703125 C84.57535749 31.97264941 101.04446738 34.00852042 119.5 28.0625 C122.68576312 26.93412052 125.54123583 25.7246344 128.5625 24.1875 C131 23 131 23 134 24 C127.80322777 32.47267767 119.34667559 37.49722198 110 42 C114.09003859 43.14982602 118.03177051 43.11094256 122.25 43.0625 C122.99507813 43.05798828 123.74015625 43.05347656 124.5078125 43.04882812 C126.3385764 43.03709246 128.16929873 43.0191585 130 43 C130 44.32 130 45.64 130 47 C127.79290017 47.65003625 125.58426108 48.29484745 123.375 48.9375 C121.53035156 49.47697266 121.53035156 49.47697266 119.6484375 50.02734375 C99.38812684 55.42864713 82.85654681 47.13408611 65.16015625 38.03125 C64.55171875 37.72034424 63.94328125 37.40943848 63.31640625 37.08911133 C61.68593629 36.25095354 60.06331874 35.39756845 58.44140625 34.54296875 C50.69324354 31.0690479 43.24283401 29.5746336 34.8125 29 C26.01799404 28.29191785 17.59788905 26.98108043 9 25 C9 24.01 9 23.02 9 22 C11.64 21.34 14.28 20.68 17 20 C14.48447239 17.37965874 11.84081226 15.01939157 9.0625 12.6875 C5.32259264 9.44391679 2.6305283 6.19240448 0 2 C0 1.34 0 0.68 0 0 Z " fill="#55774E" transform="translate(20,110)"/>
<path d="M0 0 C0.99 0 1.98 0 3 0 C3.29390625 1.0209375 3.29390625 1.0209375 3.59375 2.0625 C5.55259556 8.41186148 7.94913655 14.45096984 10.8125 20.4375 C11.11929688 21.11103516 11.42609375 21.78457031 11.7421875 22.47851562 C13.58455226 26.21172843 15.28349949 28.43978766 18.76171875 30.78515625 C19.83035156 31.51605469 20.89898437 32.24695312 22 33 C22 33.99 22 34.98 22 36 C11.7743195 33.16118463 5.17331346 24.89557558 0 16 C2.08216859 24.79137849 8.48359603 33.0673599 16 38 C23.19895246 42.13939767 29.71867006 43.82380149 38 44 C37.6875 45.9375 37.6875 45.9375 37 48 C33.57767028 49.14077657 30.91326783 49.09815117 27.3125 49.0625 C25.54326172 49.04896484 25.54326172 49.04896484 23.73828125 49.03515625 C22.83464844 49.02355469 21.93101563 49.01195312 21 49 C22.98 50.32 24.96 51.64 27 53 C26.67 54.65 26.34 56.3 26 58 C22.37 58 18.74 58 15 58 C19.455 59.98 19.455 59.98 24 62 C24 62.99 24 63.98 24 65 C25.04800781 64.69964844 26.09601563 64.39929688 27.17578125 64.08984375 C28.55456379 63.70528535 29.93347697 63.32119511 31.3125 62.9375 C32.00279297 62.73833984 32.69308594 62.53917969 33.40429688 62.33398438 C38.66015625 60.88671875 38.66015625 60.88671875 42 62 C38.66844584 67.21460651 34.56852575 68.87015789 29 71 C31.31 71.33 33.62 71.66 36 72 C36 73.32 36 74.64 36 76 C17.47623378 76.55571299 2.31687999 74.42788265 -12.25 61.6875 C-17.06861532 57.08216765 -22.00425955 52.34695702 -26 47 C-26 46.01 -26 45.02 -26 44 C-25.34 44 -24.68 44 -24 44 C-24.33 43.0925 -24.66 42.185 -25 41.25 C-26 38 -26 38 -26 34 C-25.01 34 -24.02 34 -23 34 C-21.7109375 35.8359375 -21.7109375 35.8359375 -20.375 38.375 C-13.051898 51.14070373 -3.60399859 58.86459653 10.30078125 63.3359375 C13.18407912 64.15926449 13.18407912 64.15926449 17 64 C16.07058594 63.57589844 15.14117187 63.15179688 14.18359375 62.71484375 C2.73997383 57.35098515 -4.1054725 52.07451619 -9 40 C-9.81235311 37.22508784 -10.11953074 34.77805796 -10.09765625 31.890625 C-10.09443359 31.13652344 -10.09121094 30.38242187 -10.08789062 29.60546875 C-10.07951172 28.82816406 -10.07113281 28.05085938 -10.0625 27.25 C-10.05798828 26.45722656 -10.05347656 25.66445313 -10.04882812 24.84765625 C-10.03708565 22.89840492 -10.01915146 20.94919262 -10 19 C-8.68 18.67 -7.36 18.34 -6 18 C-5.97421875 18.68964844 -5.9484375 19.37929688 -5.921875 20.08984375 C-5.27854733 30.74861361 -2.04971239 38.76890243 6 46 C11.54128601 50.2252204 11.54128601 50.2252204 18 52 C17.443125 51.62230469 16.88625 51.24460938 16.3125 50.85546875 C3.80433134 41.83352953 -3.01445758 28.92771211 -6 14 C-6.04602296 12.33396889 -6.05991329 10.66558944 -6 9 C-5.01 9.33 -4.02 9.66 -3 10 C-2.67 9.34 -2.34 8.68 -2 8 C-1.34 8 -0.68 8 0 8 C0 5.36 0 2.72 0 0 Z " fill="#54764E" transform="translate(81,13)"/>
<path d="M0 0 C1.75 0.1875 1.75 0.1875 4 1 C4.53625 1.70125 5.0725 2.4025 5.625 3.125 C14.99707897 14.47014823 31.68106273 21.40741279 46 23 C57.71891105 23.80001752 68.6474394 23.15766586 80 20 C78.5200429 24.36767828 77.1102014 26.0101654 72.921875 28.15625 C67.30374712 30.62274517 62.13793682 31.2327579 56 32 C61.28 32.66 66.56 33.32 72 34 C71.67 35.32 71.34 36.64 71 38 C48.76076203 41.7919438 25.07124031 31.03285175 4.81542969 23.05761719 C2.85644544 22.32172404 0.87502324 21.64402144 -1.12011719 21.01269531 C-2.11946289 20.69139648 -3.11880859 20.37009766 -4.1484375 20.0390625 C-5.05513184 19.76529785 -5.96182617 19.4915332 -6.89599609 19.20947266 C-9 18 -9 18 -9.68774414 15.50585938 C-9.79078857 14.67892578 -9.89383301 13.85199219 -10 13 C-11.82308208 10.80643709 -11.82308208 10.80643709 -14.0625 8.875 C-16.28515625 6.8671875 -16.28515625 6.8671875 -18 5 C-18 4.01 -18 3.02 -18 2 C-15.20834962 3.09974106 -12.5095396 4.24042177 -9.8125 5.5625 C-5.38047648 7.50396163 -0.78200021 7.72096981 4 8 C3.01 6.576875 3.01 6.576875 2 5.125 C0 2 0 2 0 0 Z " fill="#55764E" transform="translate(58,72)"/>
<path d="M0 0 C0 0.99 0 1.98 0 3 C-0.88486084 3.22856689 -1.76972168 3.45713379 -2.68139648 3.69262695 C-13.30192525 6.475428 -23.78589542 9.62432216 -34.2722168 12.87182617 C-36.42138151 13.53627805 -38.57193475 14.19607651 -40.72265625 14.85546875 C-41.97828369 15.24371826 -43.23391113 15.63196777 -44.52758789 16.03198242 C-47.6851014 16.91221452 -50.75854322 17.53391427 -54 18 C-54 16.35 -54 14.7 -54 13 C-56.31 13 -58.62 13 -61 13 C-61 12.67 -61 12.34 -61 12 C-60.40799805 11.91024902 -59.81599609 11.82049805 -59.20605469 11.72802734 C-47.44405714 9.90820383 -36.10401093 7.6710944 -24.74829102 4.08496094 C-16.54549111 1.49890585 -8.64493869 -0.3842195 0 0 Z " fill="#5D7A58" transform="translate(172,227)"/>
<path d="M0 0 C0.598125 0.226875 1.19625 0.45375 1.8125 0.6875 C1.4825 1.5125 1.1525 2.3375 0.8125 3.1875 C-1.23175093 10.34237826 -0.56946419 14.45063911 2.9140625 20.73828125 C4.32492186 23.79923264 4.19288476 26.39083212 3.8125 29.6875 C2.8125 32.125 2.8125 32.125 1.8125 33.6875 C0.8225 33.6875 -0.1675 33.6875 -1.1875 33.6875 C-2.9765625 31.16796875 -2.9765625 31.16796875 -4.8125 27.875 C-5.42351562 26.79605469 -6.03453125 25.71710937 -6.6640625 24.60546875 C-9.43769068 19.292904 -9.86827137 14.59365162 -9.1875 8.6875 C-7.375 5.25 -7.375 5.25 -5.1875 2.6875 C-4.6925 2.048125 -4.1975 1.40875 -3.6875 0.75 C-2.1875 -0.3125 -2.1875 -0.3125 0 0 Z " fill="#52714C" transform="translate(97.1875,5.3125)"/>
<path d="M0 0 C0.66 0.33 1.32 0.66 2 1 C1.67 1.99 1.34 2.98 1 4 C3.64 4 6.28 4 9 4 C9.33 5.65 9.66 7.3 10 9 C10.61488281 8.97679687 11.22976562 8.95359375 11.86328125 8.9296875 C12.67152344 8.91164062 13.47976562 8.89359375 14.3125 8.875 C15.11300781 8.85179687 15.91351562 8.82859375 16.73828125 8.8046875 C19 9 19 9 22 11 C19.11734851 11.96088383 17.32337729 12.11670941 14.33203125 12.09765625 C13.43935547 12.09443359 12.54667969 12.09121094 11.62695312 12.08789062 C10.23379883 12.07532227 10.23379883 12.07532227 8.8125 12.0625 C7.87212891 12.05798828 6.93175781 12.05347656 5.96289062 12.04882812 C3.64186288 12.03704626 1.32096356 12.02059558 -1 12 C-1 11.01 -1 10.02 -1 9 C-1.91523438 9.3609375 -2.83046875 9.721875 -3.7734375 10.09375 C-5.55621094 10.78984375 -5.55621094 10.78984375 -7.375 11.5 C-8.55835938 11.9640625 -9.74171875 12.428125 -10.9609375 12.90625 C-14 14 -14 14 -16 14 C-15.90234375 12.29296875 -15.90234375 12.29296875 -15 10 C-12.87653957 8.28100822 -10.8403824 6.79129638 -8.5625 5.3125 C-7.96373047 4.90966797 -7.36496094 4.50683594 -6.74804688 4.09179688 C-4.54464866 2.61875238 -2.37290371 1.18645186 0 0 Z " fill="#5E7859" transform="translate(16,215)"/>
<path d="M0 0 C0.66 0 1.32 0 2 0 C2 4.95 2 9.9 2 15 C1.34 15 0.68 15 0 15 C0.350625 15.94875 0.70125 16.8975 1.0625 17.875 C2 21 2 21 1 23 C0.67 22.01 0.34 21.02 0 20 C-0.33 20.33 -0.66 20.66 -1 21 C-0.71395102 22.67542976 -0.38218767 24.34385343 0 26 C-0.66 26 -1.32 26 -2 26 C-2.67548578 23.94037148 -3.34004312 21.87715678 -4 19.8125 C-4.37125 18.66394531 -4.7425 17.51539062 -5.125 16.33203125 C-5.90630553 13.35679188 -6.18363306 11.04716104 -6 8 C-5.01 8.33 -4.02 8.66 -3 9 C-2.67 8.34 -2.34 7.68 -2 7 C-1.34 7 -0.68 7 0 7 C0 4.69 0 2.38 0 0 Z " fill="#5F725C" transform="translate(81,14)"/>
<path d="M0 0 C0.99 0 1.98 0 3 0 C5 6 7 12 9 18 C8.34 18.66 7.68 19.32 7 20 C6.34 19.67 5.68 19.34 5 19 C5 19.66 5 20.32 5 21 C4.01 20.67 3.02 20.34 2 20 C0.32963221 16.3124121 1.11452289 12.17769868 1.4375 8.25 C1.51581055 7.20392578 1.51581055 7.20392578 1.59570312 6.13671875 C1.72474072 4.42403797 1.86159614 2.71194934 2 1 C1.34 0.67 0.68 0.34 0 0 Z " fill="#51704B" transform="translate(81,13)"/>
<path d="M0 0 C0.12375 0.928125 0.12375 0.928125 0.25 1.875 C0.80115872 4.18581338 0.80115872 4.18581338 3.046875 5.1328125 C3.69140625 5.41898437 4.3359375 5.70515625 5 6 C2.79194476 6.0544452 0.58349446 6.09299283 -1.625 6.125 C-2.85476562 6.14820312 -4.08453125 6.17140625 -5.3515625 6.1953125 C-8.94316041 6.0030428 -11.66661175 5.30258556 -15 4 C-14.67 3.01 -14.34 2.02 -14 1 C-12.22932584 0.83165067 -10.45845388 0.66538091 -8.6875 0.5 C-7.70136719 0.4071875 -6.71523438 0.314375 -5.69921875 0.21875 C-3 0 -3 0 0 0 Z " fill="#50694C" transform="translate(47,112)"/>
<path d="M0 0 C0 1.32 0 2.64 0 4 C0.99 4.33 1.98 4.66 3 5 C2.01 5 1.02 5 0 5 C0 5.66 0 6.32 0 7 C-0.99 7 -1.98 7 -3 7 C-3 6.34 -3 5.68 -3 5 C-8.94 5 -14.88 5 -21 5 C-14.50128247 0.12596185 -7.95106745 -0.28912973 0 0 Z " fill="#4B6C44" transform="translate(118,238)"/>
<path d="M0 0 C4.38585031 0.50605965 6.78252098 3.20219215 10 6 C10.66 6.33 11.32 6.66 12 7 C12 7.99 12 8.98 12 10 C13.32 10.66 14.64 11.32 16 12 C14.02 12.99 14.02 12.99 12 14 C11.67 13.34 11.34 12.68 11 12 C10.01 12 9.02 12 8 12 C5.95703125 9.8828125 5.95703125 9.8828125 3.8125 7.125 C3.09707031 6.22007813 2.38164062 5.31515625 1.64453125 4.3828125 C0 2 0 2 0 0 Z " fill="#4F6C49" transform="translate(20,110)"/>
<path d="M0 0 C1.02673828 0.24556641 1.02673828 0.24556641 2.07421875 0.49609375 C5.3743278 1.06447034 8.46554069 1.09630767 11.8125 1.0625 C13.55466797 1.04896484 13.55466797 1.04896484 15.33203125 1.03515625 C16.21246094 1.02355469 17.09289062 1.01195312 18 1 C18 2.32 18 3.64 18 5 C12.555 6.485 12.555 6.485 7 8 C7 6.68 7 5.36 7 4 C4.69 3.34 2.38 2.68 0 2 C0 1.34 0 0.68 0 0 Z " fill="#6A8365" transform="translate(127,129)"/>
<path d="M0 0 C-0.34485543 2.8842454 -0.78255407 3.8207818 -3.06640625 5.703125 C-3.89011719 6.21359375 -4.71382812 6.7240625 -5.5625 7.25 C-6.80193359 8.03117187 -6.80193359 8.03117187 -8.06640625 8.828125 C-8.70449219 9.21484375 -9.34257812 9.6015625 -10 10 C-9.67 8.02 -9.34 6.04 -9 4 C-11.31 4 -13.62 4 -16 4 C-11.0523795 1.11388804 -5.66834163 0 0 0 Z " fill="#62805C" transform="translate(144,114)"/>
<path d="M0 0 C5.61 0 11.22 0 17 0 C18 2 18 2 17.375 4.0625 C16 6 16 6 13.375 6.75 C12.199375 6.87375 12.199375 6.87375 11 7 C11 5.68 11 4.36 11 3 C7.37 2.67 3.74 2.34 0 2 C0 1.34 0 0.68 0 0 Z " fill="#718C6A" transform="translate(108,96)"/>
<path d="M0 0 C2.31 0 4.62 0 7 0 C6 3 6 3 3 5 C1.01200182 5.70164642 -0.98698517 6.37372872 -3 7 C-2.34 7.33 -1.68 7.66 -1 8 C-1 8.66 -1 9.32 -1 10 C-6.75 8.125 -6.75 8.125 -9 7 C-9 6.01 -9 5.02 -9 4 C-3.555 3.01 -3.555 3.01 2 2 C1.34 1.34 0.68 0.68 0 0 Z " fill="#677F61" transform="translate(27,178)"/>
<path d="M0 0 C0.66 1.65 1.32 3.3 2 5 C-0.97 5.66 -3.94 6.32 -7 7 C-7 5.35 -7 3.7 -7 2 C-9.31 2 -11.62 2 -14 2 C-14 1.67 -14 1.34 -14 1 C-9.27685687 0.22887459 -4.78478822 -0.09764874 0 0 Z " fill="#678561" transform="translate(125,238)"/>
<path d="M0 0 C0.99 0 1.98 0 3 0 C3 3.3 3 6.6 3 10 C2.34 10 1.68 10 1 10 C1 11.98 1 13.96 1 16 C0.34 16 -0.32 16 -1 16 C-1.02685095 13.52076199 -1.04676547 11.0418116 -1.0625 8.5625 C-1.07506836 7.50192383 -1.07506836 7.50192383 -1.08789062 6.41992188 C-1.09653588 4.61306441 -1.05220011 2.80612397 -1 1 C-0.67 0.67 -0.34 0.34 0 0 Z " fill="#738E6F" transform="translate(72,31)"/>
<path d="M0 0 C-0.19140625 1.828125 -0.19140625 1.828125 -1 4 C-3.21484375 5.484375 -3.21484375 5.484375 -5.9375 6.75 C-6.83339844 7.17796875 -7.72929687 7.6059375 -8.65234375 8.046875 C-11 9 -11 9 -13 9 C-13 8.34 -13 7.68 -13 7 C-11.68 6.34 -10.36 5.68 -9 5 C-10.32 4.34 -11.64 3.68 -13 3 C-11.46526647 1.46526647 -9.72281274 1.39576006 -7.625 0.9375 C-6.83351562 0.76089844 -6.04203125 0.58429688 -5.2265625 0.40234375 C-3 0 -3 0 0 0 Z " fill="#728A6C" transform="translate(139,189)"/>
<path d="M0 0 C-0.4375 2.875 -0.4375 2.875 -2 6 C-4.93581453 7.15929788 -7.87498361 7.62705566 -11 8 C-10.4375 5.125 -10.4375 5.125 -9 2 C-5.8955549 0.78039657 -3.34314092 0 0 0 Z " fill="#5F7A5A" transform="translate(152,230)"/>
<path d="M0 0 C1.32 0.33 2.64 0.66 4 1 C3.01 3.64 2.02 6.28 1 9 C-1.97 8.505 -1.97 8.505 -5 8 C-5.33 8.66 -5.66 9.32 -6 10 C-5.69404824 6.43056285 -4.97575359 4.96985581 -2.6875 2.125 C-1.800625 1.42375 -0.91375 0.7225 0 0 Z " fill="#587852" transform="translate(95,5)"/>
<path d="M0 0 C4.29 0.33 8.58 0.66 13 1 C13 1.99 13 2.98 13 4 C10.09399739 5.25664978 8.20395416 6 5 6 C5 5.01 5 4.02 5 3 C4.01 3.33 3.02 3.66 2 4 C2 3.34 2 2.68 2 2 C1.34 2 0.68 2 0 2 C0 1.34 0 0.68 0 0 Z " fill="#6A8465" transform="translate(132,181)"/>
<path d="M0 0 C-4.27171492 5.79732739 -4.27171492 5.79732739 -8 7 C-8.99 6.67 -9.98 6.34 -11 6 C-10.34 5.67 -9.68 5.34 -9 5 C-10.65 4.67 -12.3 4.34 -14 4 C-13 2 -13 2 -10.8203125 1.11328125 C-9.93085937 0.84902344 -9.04140625 0.58476563 -8.125 0.3125 C-7.24070312 0.04050781 -6.35640625 -0.23148437 -5.4453125 -0.51171875 C-3 -1 -3 -1 0 0 Z " fill="#607B5B" transform="translate(123,75)"/>
<path d="M0 0 C-1.07507629 1.29854721 -2.16043736 2.58858361 -3.25 3.875 C-3.85328125 4.59429687 -4.4565625 5.31359375 -5.078125 6.0546875 C-6.97087634 7.97052118 -8.53657727 8.96449045 -11 10 C-10.625 7.5625 -10.625 7.5625 -10 5 C-9.34 4.67 -8.68 4.34 -8 4 C-8.66 3.34 -9.32 2.68 -10 2 C-3.375 -1.125 -3.375 -1.125 0 0 Z " fill="#405C3B" transform="translate(160,158)"/>
<path d="M0 0 C1.48831242 0.00667405 2.97660807 0.01863442 4.46484375 0.03515625 C5.22345703 0.03966797 5.98207031 0.04417969 6.76367188 0.04882812 C8.64326246 0.06064945 10.52281274 0.07858547 12.40234375 0.09765625 C12.40234375 0.75765625 12.40234375 1.41765625 12.40234375 2.09765625 C9.32983364 2.98875547 6.53586982 3.26105349 3.33984375 3.28515625 C2.05400391 3.30642578 2.05400391 3.30642578 0.7421875 3.328125 C-1.59765625 3.09765625 -1.59765625 3.09765625 -4.59765625 1.09765625 C-3.59765625 0.09765625 -3.59765625 0.09765625 0 0 Z " fill="#698065" transform="translate(121.59765625,158.90234375)"/>
<path d="M0 0 C0.98484375 0.01804687 1.9696875 0.03609375 2.984375 0.0546875 C4.10585937 0.08949219 4.10585937 0.08949219 5.25 0.125 C4.92 1.115 4.59 2.105 4.25 3.125 C2.66870971 3.34831199 1.08478911 3.55304644 -0.5 3.75 C-1.82257813 3.92402344 -1.82257813 3.92402344 -3.171875 4.1015625 C-5.97859878 4.12707817 -7.38384866 3.57343844 -9.75 2.125 C-6.40060119 0.09941119 -3.88037449 -0.09238987 0 0 Z " fill="#769171" transform="translate(124.75,106.875)"/>
<path d="M0 0 C-0.33 1.32 -0.66 2.64 -1 4 C-1.66 4 -2.32 4 -3 4 C-3 4.99 -3 5.98 -3 7 C-5.31 7.66 -7.62 8.32 -10 9 C-9.6121322 6.51339545 -9.29037521 5.27654781 -7.44140625 3.515625 C-6.82136719 3.09796875 -6.20132812 2.6803125 -5.5625 2.25 C-4.94503906 1.82203125 -4.32757812 1.3940625 -3.69140625 0.953125 C-2 0 -2 0 0 0 Z " fill="#568052" transform="translate(10,220)"/>
<path d="M0 0 C4.38332057 0.82187261 8.67940177 1.90154282 13 3 C12.01 3.33 11.02 3.66 10 4 C10 4.66 10 5.32 10 6 C6.7 5.34 3.4 4.68 0 4 C0 2.68 0 1.36 0 0 Z " fill="#556652" transform="translate(12,157)"/>
<path d="M0 0 C2.64 0.33 5.28 0.66 8 1 C8 1.99 8 2.98 8 4 C9.32 4.66 10.64 5.32 12 6 C12 6.66 12 7.32 12 8 C9.99538701 7.34733531 7.99620166 6.67795528 6 6 C4.6078125 5.566875 4.6078125 5.566875 3.1875 5.125 C1 4 1 4 0.1875 1.875 C0.125625 1.25625 0.06375 0.6375 0 0 Z " fill="#5D765A" transform="translate(41,94)"/>
<path d="M0 0 C5.75 -0.125 5.75 -0.125 8 1 C8 1.66 8 2.32 8 3 C8.66 3 9.32 3 10 3 C10 3.66 10 4.32 10 5 C6.7 4.67 3.4 4.34 0 4 C0 2.68 0 1.36 0 0 Z " fill="#73876F" transform="translate(33,113)"/>
<path d="M0 0 C0.69738281 0.05220703 1.39476563 0.10441406 2.11328125 0.15820312 C3.82596203 0.28724072 5.53805066 0.42409614 7.25 0.5625 C7.25 0.8925 7.25 1.2225 7.25 1.5625 C6.50234375 1.61148438 5.7546875 1.66046875 4.984375 1.7109375 C3.99953125 1.78570312 3.0146875 1.86046875 2 1.9375 C0.53820312 2.04191406 0.53820312 2.04191406 -0.953125 2.1484375 C-3.66600643 2.5500652 -5.3562868 3.30265095 -7.75 4.5625 C-10 4.1875 -10 4.1875 -11.75 3.5625 C-10.76 3.5625 -9.77 3.5625 -8.75 3.5625 C-8.75 2.9025 -8.75 2.2425 -8.75 1.5625 C-9.74 1.2325 -10.73 0.9025 -11.75 0.5625 C-7.84519751 -0.79612973 -4.0398224 -0.33219712 0 0 Z " fill="#496745" transform="translate(122.75,105.4375)"/>
<path d="M0 0 C0 0.66 0 1.32 0 2 C-3.0526063 2.88327729 -5.82505177 3.1633007 -9 3.1875 C-9.845625 3.20167969 -10.69125 3.21585938 -11.5625 3.23046875 C-14.15408616 2.98543096 -15.77024992 2.30584901 -18 1 C-15.93769732 0.8309093 -13.8751477 0.66482867 -11.8125 0.5 C-10.08966797 0.36078125 -10.08966797 0.36078125 -8.33203125 0.21875 C-5.53927574 0.0354038 -2.79680188 -0.04213637 0 0 Z " fill="#6B7F68" transform="translate(115,243)"/>
<path d="M0 0 C0.33 0.99 0.66 1.98 1 3 C0.34 3 -0.32 3 -1 3 C-1.33 3.99 -1.66 4.98 -2 6 C-3.98 6.33 -5.96 6.66 -8 7 C-8 6.01 -8 5.02 -8 4 C-7.01 4 -6.02 4 -5 4 C-5 3.01 -5 2.02 -5 1 C-2 0 -2 0 0 0 Z " fill="#4D6947" transform="translate(142,233)"/>
<path d="M0 0 C2.97 0 5.94 0 9 0 C8.34 1.32 7.68 2.64 7 4 C3.875 4.75 3.875 4.75 1 5 C0.67 3.35 0.34 1.7 0 0 Z " fill="#657961" transform="translate(136,226)"/>
<path d="M0 0 C2.97 0.99 5.94 1.98 9 3 C9 3.99 9 4.98 9 6 C5.7 5.34 2.4 4.68 -1 4 C-0.67 2.68 -0.34 1.36 0 0 Z " fill="#72886E" transform="translate(96,72)"/>
<path d="M0 0 C-1.65 1.98 -3.3 3.96 -5 6 C-6.32 5.67 -7.64 5.34 -9 5 C-9 4.01 -9 3.02 -9 2 C-3.375 -1.125 -3.375 -1.125 0 0 Z " fill="#4F694B" transform="translate(154,134)"/>
<path d="M0 0 C4.95 0 9.9 0 15 0 C15 0.66 15 1.32 15 2 C12.03 2.66 9.06 3.32 6 4 C6 3.34 6 2.68 6 2 C3.03 1.505 3.03 1.505 0 1 C0 0.67 0 0.34 0 0 Z " fill="#6D8966" transform="translate(135,155)"/>
<path d="M0 0 C4.62 0 9.24 0 14 0 C14 0.66 14 1.32 14 2 C12.41773035 2.19627391 10.83410729 2.38165538 9.25 2.5625 C8.36828125 2.66691406 7.4865625 2.77132812 6.578125 2.87890625 C4.11567549 2.99456676 2.33461936 2.73638695 0 2 C0 1.34 0 0.68 0 0 Z " fill="#617E5B" transform="translate(117,135)"/>
<path d="M0 0 C-0.33 1.32 -0.66 2.64 -1 4 C-6.53846154 4.36923077 -6.53846154 4.36923077 -8.875 2.5 C-9.24625 2.005 -9.6175 1.51 -10 1 C-6.52674819 -0.1577506 -3.63932552 -0.06866652 0 0 Z " fill="#698265" transform="translate(119,57)"/>
<path d="M0 0 C0 0.66 0 1.32 0 2 C0.99 2.66 1.98 3.32 3 4 C-0.96 4 -4.92 4 -9 4 C-7.68 3.67 -6.36 3.34 -5 3 C-5 2.34 -5 1.68 -5 1 C-5.66 0.67 -6.32 0.34 -7 0 C-3.86650268 -1.04449911 -3.01031744 -0.93423645 0 0 Z " fill="#395035" transform="translate(112,58)"/>
<path d="M0 0 C0.99 0.33 1.98 0.66 3 1 C3.33 2.65 3.66 4.3 4 6 C3.01 6.495 3.01 6.495 2 7 C1.67 7.99 1.34 8.98 1 10 C0.34 10 -0.32 10 -1 10 C-1.33 8.68 -1.66 7.36 -2 6 C-1.34 6 -0.68 6 0 6 C0 4.02 0 2.04 0 0 Z " fill="#486343" transform="translate(73,41)"/>
<path d="M0 0 C0.66 0 1.32 0 2 0 C2 4.95 2 9.9 2 15 C-1.55587991 9.66618013 -0.92448054 6.16320363 0 0 Z " fill="#80967C" transform="translate(81,14)"/>
<path d="M0 0 C1.32 0.33 2.64 0.66 4 1 C4 2.32 4 3.64 4 5 C3.01 5 2.02 5 1 5 C1 4.34 1 3.68 1 3 C-3.62 3 -8.24 3 -13 3 C-13 2.67 -13 2.34 -13 2 C-6.565 1.505 -6.565 1.505 0 1 C0 0.67 0 0.34 0 0 Z " fill="#476A40" transform="translate(130,132)"/>
<path d="M0 0 C-0.33 0.99 -0.66 1.98 -1 3 C-4.63 3 -8.26 3 -12 3 C-12.33 2.34 -12.66 1.68 -13 1 C-11.58366664 0.83052421 -10.16691467 0.66454493 -8.75 0.5 C-7.56664063 0.36078125 -7.56664063 0.36078125 -6.359375 0.21875 C-4 0 -4 0 0 0 Z " fill="#879F83" transform="translate(127,116)"/>
<path d="M0 0 C1.75 0.125 1.75 0.125 4 1 C6.25 4.0625 6.25 4.0625 8 7 C7.01 7.495 7.01 7.495 6 8 C2.24623848 6.74874616 1.75926711 5.4347596 0 2 C0 1.34 0 0.68 0 0 Z " fill="#4C6B47" transform="translate(58,72)"/>
<path d="M0 0 C0 0.66 0 1.32 0 2 C0.66 2.33 1.32 2.66 2 3 C2 3.66 2 4.32 2 5 C-0.64 4.67 -3.28 4.34 -6 4 C-6 3.01 -6 2.02 -6 1 C-4 0 -4 0 0 0 Z " fill="#688066" transform="translate(35,131)"/>
<path d="M0 0 C0.66 0 1.32 0 2 0 C2 0.66 2 1.32 2 2 C3.98 2.66 5.96 3.32 8 4 C7.67 4.99 7.34 5.98 7 7 C6.01 7.33 5.02 7.66 4 8 C4 7.01 4 6.02 4 5 C2.02 4.34 0.04 3.68 -2 3 C-1.34 2.67 -0.68 2.34 0 2 C0 1.34 0 0.68 0 0 Z " fill="#44693D" transform="translate(49,95)"/>
<path d="M0 0 C5.53846154 -0.36923077 5.53846154 -0.36923077 7.875 1.5 C8.24625 1.995 8.6175 2.49 9 3 C8.01 3 7.02 3 6 3 C6 3.66 6 4.32 6 5 C5.34 5 4.68 5 4 5 C4 4.34 4 3.68 4 3 C2.68 3 1.36 3 0 3 C0 2.01 0 1.02 0 0 Z " fill="#4C7145" transform="translate(113,98)"/>
<path d="M0 0 C2 2 2 2 2 5 C-0.5 6.6875 -0.5 6.6875 -3 8 C-2.67 6.68 -2.34 5.36 -2 4 C-2.66 3.67 -3.32 3.34 -4 3 C-4 2.34 -4 1.68 -4 1 C-2 0 -2 0 0 0 Z " fill="#6B8366" transform="translate(145,137)"/>
<path d="M0 0 C0.66 0 1.32 0 2 0 C1.67 1.32 1.34 2.64 1 4 C-2.375 4.125 -2.375 4.125 -6 4 C-6.66 3.34 -7.32 2.68 -8 2 C-6.865625 1.855625 -5.73125 1.71125 -4.5625 1.5625 C-1.19222799 1.38828522 -1.19222799 1.38828522 0 0 Z " fill="#7A8E76" transform="translate(106,67)"/>
<path d="M0 0 C0.99 0 1.98 0 3 0 C4.4606285 2.64738916 5 3.89448334 5 7 C3.68 6.67 2.36 6.34 1 6 C0.67 4.02 0.34 2.04 0 0 Z " fill="#60765C" transform="translate(55,47)"/>
<path d="M0 0 C2.31 0 4.62 0 7 0 C6 3 6 3 3 5 C0.3125 5.125 0.3125 5.125 -2 5 C-2 4.34 -2 3.68 -2 3 C-0.68 2.67 0.64 2.34 2 2 C1.34 1.34 0.68 0.68 0 0 Z " fill="#81987C" transform="translate(27,178)"/>
<path d="M0 0 C-0.3125 1.9375 -0.3125 1.9375 -1 4 C-4.76624671 5.25541557 -6.37188934 4.37061958 -10 3 C-10 2.67 -10 2.34 -10 2 C-3.375 0 -3.375 0 0 0 Z " fill="#556950" transform="translate(139,189)"/>
<path d="M0 0 C0.99 0 1.98 0 3 0 C3 2.64 3 5.28 3 8 C2.34 8 1.68 8 1 8 C1 6.68 1 5.36 1 4 C0.34 4 -0.32 4 -1 4 C-0.67 2.68 -0.34 1.36 0 0 Z " fill="#3D503B" transform="translate(72,31)"/>
<path d="M0 0 C3.62260852 -0.20125603 5.90005152 0.07589404 9 2 C9.66 2.66 10.32 3.32 11 4 C9.02 4.33 7.04 4.66 5 5 C4.731875 4.360625 4.46375 3.72125 4.1875 3.0625 C3.11332248 0.66868314 3.11332248 0.66868314 0 0 Z " fill="#445E3F" transform="translate(122,237)"/>
<path d="M0 0 C3.875 0.875 3.875 0.875 5 2 C5.04080783 3.99958364 5.04254356 6.00045254 5 8 C2.20127563 5.47211993 0.54226981 3.79588866 0 0 Z " fill="#62795C" transform="translate(5,159)"/>
<path d="M0 0 C1.98 0.495 1.98 0.495 4 1 C4 1.66 4 2.32 4 3 C4.66 3 5.32 3 6 3 C6 3.99 6 4.98 6 6 C4.68 5.67 3.36 5.34 2 5 C2 4.34 2 3.68 2 3 C1.01 2.67 0.02 2.34 -1 2 C-0.67 1.34 -0.34 0.68 0 0 Z " fill="#486641" transform="translate(35,131)"/>
<path d="M0 0 C2.475 0.99 2.475 0.99 5 2 C4.01 2.495 4.01 2.495 3 3 C2.67 3.66 2.34 4.32 2 5 C1.34 4.67 0.68 4.34 0 4 C-1.67654729 4.27942455 -3.34608154 4.60828247 -5 5 C-4.67 4.34 -4.34 3.68 -4 3 C-3.01 3 -2.02 3 -1 3 C-0.67 2.01 -0.34 1.02 0 0 Z " fill="#5A7054" transform="translate(103,64)"/>
<path d="M0 0 C2.375 0.6875 2.375 0.6875 5 2 C6.3125 4.625 6.3125 4.625 7 7 C4.0625 5.75 4.0625 5.75 1 4 C0.125 1.8125 0.125 1.8125 0 0 Z " fill="#496244" transform="translate(40,74)"/>
<path d="M0 0 C4.29 0.33 8.58 0.66 13 1 C9 4 9 4 7 4 C6.67 3.34 6.34 2.68 6 2 C2.97065509 1.34227572 2.97065509 1.34227572 0 1 C0 0.67 0 0.34 0 0 Z " fill="#4B6C45" transform="translate(119,192)"/>
<path d="M0 0 C0.99 0 1.98 0 3 0 C3.33 0.99 3.66 1.98 4 3 C4.66 3.66 5.32 4.32 6 5 C4.02 5.66 2.04 6.32 0 7 C0.185625 6.21625 0.37125 5.4325 0.5625 4.625 C1.25962266 2.02910225 1.25962266 2.02910225 0 0 Z " fill="#415A3E" transform="translate(124,95)"/>
<path d="M0 0 C1.98 0 3.96 0 6 0 C6 1.32 6 2.64 6 4 C4.68 4 3.36 4 2 4 C2 3.34 2 2.68 2 2 C1.34 2 0.68 2 0 2 C0 1.34 0 0.68 0 0 Z " fill="#41503E" transform="translate(111,85)"/>
<path d="M0 0 C2.97 0.33 5.94 0.66 9 1 C9 1.33 9 1.66 9 2 C5.7 2.33 2.4 2.66 -1 3 C-0.67 2.01 -0.34 1.02 0 0 Z " fill="#7F9979" transform="translate(101,237)"/>
<path d="M0 0 C0 0.66 0 1.32 0 2 C-2.31 2.33 -4.62 2.66 -7 3 C-7 2.01 -7 1.02 -7 0 C-4.3333581 -1.33332095 -2.83319697 -0.67102033 0 0 Z " fill="#7F8E7D" transform="translate(22,224)"/>
<path d="M0 0 C1.32 0.33 2.64 0.66 4 1 C3.67 2.65 3.34 4.3 3 6 C1.35 5.67 -0.3 5.34 -2 5 C-2 4.34 -2 3.68 -2 3 C-1.01 2.67 -0.02 2.34 1 2 C0.67 1.34 0.34 0.68 0 0 Z " fill="#6B8865" transform="translate(68,179)"/>
<path d="M0 0 C1.98 0 3.96 0 6 0 C6 0.99 6 1.98 6 3 C4.02 3 2.04 3 0 3 C0 2.01 0 1.02 0 0 Z " fill="#BAC6B8" transform="translate(136,176)"/>
<path d="M0 0 C1.98 0.99 1.98 0.99 4 2 C4 3.65 4 5.3 4 7 C3.34 7 2.68 7 2 7 C0.5393715 4.35261084 0 3.10551666 0 0 Z " fill="#688365" transform="translate(5,125)"/>
<path d="M0 0 C4.95 0.99 4.95 0.99 10 2 C10 2.66 10 3.32 10 4 C3.375 3.375 3.375 3.375 0 0 Z " fill="#6A8265" transform="translate(84,83)"/>
<path d="M0 0 C-0.66 1.32 -1.32 2.64 -2 4 C-2.99 4 -3.98 4 -5 4 C-5 3.01 -5 2.02 -5 1 C-5.66 0.67 -6.32 0.34 -7 0 C-4.3333581 -1.33332095 -2.83319697 -0.67102033 0 0 Z " fill="#4D6B47" transform="translate(100,66)"/>
<path d="M0 0 C-0.33 0.66 -0.66 1.32 -1 2 C-3.64860427 2.59355614 -6.29197322 2.74209269 -9 3 C-9 2.34 -9 1.68 -9 1 C-5.8035914 -0.06546953 -3.34252724 -0.07427838 0 0 Z " fill="#788E72" transform="translate(133,231)"/>
<path d="M0 0 C1.65 0 3.3 0 5 0 C5 0.99 5 1.98 5 3 C3.35 3.33 1.7 3.66 0 4 C0 2.68 0 1.36 0 0 Z " fill="#546B50" transform="translate(167,227)"/>
<path d="M0 0 C1.32 0.66 2.64 1.32 4 2 C2.35 2.33 0.7 2.66 -1 3 C-1 3.99 -1 4.98 -1 6 C-1.99 5.67 -2.98 5.34 -4 5 C-3.34 5 -2.68 5 -2 5 C-2.33 4.01 -2.66 3.02 -3 2 C-2.01 1.34 -1.02 0.68 0 0 Z " fill="#45643F" transform="translate(12,217)"/>
<path d="M0 0 C0.928125 0.20625 1.85625 0.4125 2.8125 0.625 C2.8125 1.285 2.8125 1.945 2.8125 2.625 C-0.1575 2.295 -3.1275 1.965 -6.1875 1.625 C-3.1875 -0.375 -3.1875 -0.375 0 0 Z " fill="#738C6E" transform="translate(54.1875,217.375)"/>
<path d="M0 0 C2.64 0 5.28 0 8 0 C7.01 0.495 7.01 0.495 6 1 C5.67 1.99 5.34 2.98 5 4 C4.34 4 3.68 4 3 4 C3 3.34 3 2.68 3 2 C2.01 1.67 1.02 1.34 0 1 C0 0.67 0 0.34 0 0 Z " fill="#486B42" transform="translate(135,156)"/>
<path d="M0 0 C2.31 0.33 4.62 0.66 7 1 C7 1.99 7 2.98 7 4 C5.35 3.67 3.7 3.34 2 3 C2 2.34 2 1.68 2 1 C1.34 0.67 0.68 0.34 0 0 Z " fill="#4D6A47" transform="translate(109,133)"/>
<path d="M0 0 C-0.66 1.98 -1.32 3.96 -2 6 C-2.99 6 -3.98 6 -5 6 C-4.625 3.5625 -4.625 3.5625 -4 1 C-2 0 -2 0 0 0 Z " fill="#70906C" transform="translate(152,230)"/>
<path d="M0 0 C2.64 0.33 5.28 0.66 8 1 C7.01 1.33 6.02 1.66 5 2 C5 2.66 5 3.32 5 4 C3.0625 3.6875 3.0625 3.6875 1 3 C0.67 2.01 0.34 1.02 0 0 Z " fill="#4C6C46" transform="translate(17,159)"/>
<path d="M0 0 C1.32 0 2.64 0 4 0 C3.67 1.32 3.34 2.64 3 4 C1.68 3.67 0.36 3.34 -1 3 C-0.67 2.01 -0.34 1.02 0 0 Z " fill="#758A70" transform="translate(140,114)"/>
<path d="M0 0 C0.66 0 1.32 0 2 0 C5 5.75 5 5.75 5 8 C4.01 7.67 3.02 7.34 2 7 C0.8125 3.4375 0.8125 3.4375 0 0 Z " fill="#698564" transform="translate(72,51)"/>
<path d="M0 0 C0.66 0.66 1.32 1.32 2 2 C1.01 2.495 1.01 2.495 0 3 C0 2.01 0 1.02 0 0 Z " fill="#000000" transform="translate(80,68)"/>
<path d="M0 0 C0.99 0.495 0.99 0.495 2 1 C1.67 1.66 1.34 2.32 1 3 C0.67 2.01 0.34 1.02 0 0 Z " fill="#000000" transform="translate(84,53)"/>
<path d="M0 0 C0.66 0.66 1.32 1.32 2 2 C1.34 2 0.68 2 0 2 C0 1.34 0 0.68 0 0 Z " fill="#000000" transform="translate(82,70)"/>
<path d="M0 0 C2 1 2 1 2 1 Z " fill="#000000" transform="translate(61,236)"/>
<path d="" fill="#000000" transform="translate(0,0)"/>
<path d="" fill="#000000" transform="translate(0,0)"/>
<path d="" fill="#000000" transform="translate(0,0)"/>
<path d="M0 0 C2 1 2 1 2 1 Z " fill="#000000" transform="translate(88,58)"/>
<path d="" fill="#000000" transform="translate(0,0)"/>
<path d="" fill="#000000" transform="translate(0,0)"/>
<path d="" fill="#000000" transform="translate(0,0)"/>
<path d="" fill="#000000" transform="translate(0,0)"/>
<path d="" fill="#000000" transform="translate(0,0)"/>
<path d="" fill="#000000" transform="translate(0,0)"/>
<path d="" fill="#000000" transform="translate(0,0)"/>
<path d="" fill="#000000" transform="translate(0,0)"/>
<path d="" fill="#000000" transform="translate(0,0)"/>
<path d="" fill="#000000" transform="translate(0,0)"/>
<path d="" fill="#000000" transform="translate(0,0)"/>
<path d="" fill="#000000" transform="translate(0,0)"/>
<path d="" fill="#000000" transform="translate(0,0)"/>
<path d="" fill="#000000" transform="translate(0,0)"/>
<path d="" fill="#000000" transform="translate(0,0)"/>
<path d="" fill="#000000" transform="translate(0,0)"/>
<path d="" fill="#000000" transform="translate(0,0)"/>
<path d="" fill="#000000" transform="translate(0,0)"/>
<path d="" fill="#000000" transform="translate(0,0)"/>
<path d="" fill="#000000" transform="translate(0,0)"/>
<path d="" fill="#000000" transform="translate(0,0)"/>
<path d="" fill="#000000" transform="translate(0,0)"/>
<path d="" fill="#000000" transform="translate(0,0)"/>
<path d="" fill="#000000" transform="translate(0,0)"/>
<path d="" fill="#000000" transform="translate(0,0)"/>
<path d="" fill="#000000" transform="translate(0,0)"/>
<path d="" fill="#000000" transform="translate(0,0)"/>
<path d="" fill="#000000" transform="translate(0,0)"/>
<path d="" fill="#000000" transform="translate(0,0)"/>
<path d="" fill="#000000" transform="translate(0,0)"/>
<path d="" fill="#000000" transform="translate(0,0)"/>
<path d="" fill="#000000" transform="translate(0,0)"/>
<path d="" fill="#000000" transform="translate(0,0)"/>
<path d="" fill="#000000" transform="translate(0,0)"/>
<path d="" fill="#000000" transform="translate(0,0)"/>
<path d="" fill="#000000" transform="translate(0,0)"/>
<path d="" fill="#000000" transform="translate(0,0)"/>
<path d="" fill="#000000" transform="translate(0,0)"/>
<path d="" fill="#000000" transform="translate(0,0)"/>
<path d="" fill="#000000" transform="translate(0,0)"/>
<path d="" fill="#000000" transform="translate(0,0)"/>
<path d="" fill="#000000" transform="translate(0,0)"/>
<path d="" fill="#000000" transform="translate(0,0)"/>
<path d="" fill="#000000" transform="translate(0,0)"/>
<path d="" fill="#000000" transform="translate(0,0)"/>
<path d="" fill="#000000" transform="translate(0,0)"/>
<path d="" fill="#000000" transform="translate(0,0)"/>
<path d="" fill="#000000" transform="translate(0,0)"/>
<path d="" fill="#000000" transform="translate(0,0)"/>
<path d="" fill="#000000" transform="translate(0,0)"/>
<path d="" fill="#000000" transform="translate(0,0)"/>
<path d="" fill="#000000" transform="translate(0,0)"/>
<path d="" fill="#000000" transform="translate(0,0)"/>
<path d="" fill="#000000" transform="translate(0,0)"/>
<path d="" fill="#000000" transform="translate(0,0)"/>
<path d="" fill="#000000" transform="translate(0,0)"/>
<path d="" fill="#000000" transform="translate(0,0)"/>
<path d="" fill="#000000" transform="translate(0,0)"/>
<path d="" fill="#000000" transform="translate(0,0)"/>
<path d="" fill="#000000" transform="translate(0,0)"/>
<path d="" fill="#000000" transform="translate(0,0)"/>
<path d="" fill="#000000" transform="translate(0,0)"/>
<path d="" fill="#000000" transform="translate(0,0)"/>
<path d="" fill="#000000" transform="translate(0,0)"/>
<path d="" fill="#000000" transform="translate(0,0)"/>
<path d="" fill="#000000" transform="translate(0,0)"/>
<path d="" fill="#000000" transform="translate(0,0)"/>
<path d="" fill="#000000" transform="translate(0,0)"/>
<path d="" fill="#000000" transform="translate(0,0)"/>
<path d="" fill="#000000" transform="translate(0,0)"/>
<path d="" fill="#000000" transform="translate(0,0)"/>
<path d="" fill="#000000" transform="translate(0,0)"/>
<path d="" fill="#000000" transform="translate(0,0)"/>
<path d="" fill="#000000" transform="translate(0,0)"/>
<path d="" fill="#000000" transform="translate(0,0)"/>
<path d="" fill="#000000" transform="translate(0,0)"/>
<path d="" fill="#000000" transform="translate(0,0)"/>
<path d="" fill="#000000" transform="translate(0,0)"/>
<path d="" fill="#000000" transform="translate(0,0)"/>
<path d="" fill="#000000" transform="translate(0,0)"/>
<path d="" fill="#000000" transform="translate(0,0)"/>
<path d="" fill="#000000" transform="translate(0,0)"/>
<path d="" fill="#000000" transform="translate(0,0)"/>
<path d="" fill="#000000" transform="translate(0,0)"/>
<path d="" fill="#000000" transform="translate(0,0)"/>
<path d="" fill="#000000" transform="translate(0,0)"/>
<path d="" fill="#000000" transform="translate(0,0)"/>
<path d="" fill="#000000" transform="translate(0,0)"/>
<path d="" fill="#000000" transform="translate(0,0)"/>
<path d="" fill="#000000" transform="translate(0,0)"/>
<path d="" fill="#000000" transform="translate(0,0)"/>
<path d="" fill="#000000" transform="translate(0,0)"/>
<path d="" fill="#000000" transform="translate(0,0)"/>
<path d="" fill="#000000" transform="translate(0,0)"/>
<path d="" fill="#000000" transform="translate(0,0)"/>
<path d="" fill="#000000" transform="translate(0,0)"/>
<path d="" fill="#000000" transform="translate(0,0)"/>
<path d="" fill="#000000" transform="translate(0,0)"/>
<path d="" fill="#000000" transform="translate(0,0)"/>
<path d="" fill="#000000" transform="translate(0,0)"/>
<path d="" fill="#000000" transform="translate(0,0)"/>
<path d="" fill="#000000" transform="translate(0,0)"/>
<path d="" fill="#000000" transform="translate(0,0)"/>
<path d="" fill="#000000" transform="translate(0,0)"/>
<path d="" fill="#000000" transform="translate(0,0)"/>
<path d="" fill="#000000" transform="translate(0,0)"/>
<path d="" fill="#000000" transform="translate(0,0)"/>
<path d="" fill="#000000" transform="translate(0,0)"/>
<path d="" fill="#000000" transform="translate(0,0)"/>
<path d="" fill="#000000" transform="translate(0,0)"/>
<path d="" fill="#000000" transform="translate(0,0)"/>
<path d="" fill="#000000" transform="translate(0,0)"/>
<path d="" fill="#000000" transform="translate(0,0)"/>
<path d="" fill="#000000" transform="translate(0,0)"/>
<path d="" fill="#000000" transform="translate(0,0)"/>
<path d="" fill="#000000" transform="translate(0,0)"/>
<path d="" fill="#000000" transform="translate(0,0)"/>
<path d="" fill="#000000" transform="translate(0,0)"/>
<path d="" fill="#000000" transform="translate(0,0)"/>
<path d="" fill="#000000" transform="translate(0,0)"/>
<path d="" fill="#000000" transform="translate(0,0)"/>
<path d="" fill="#000000" transform="translate(0,0)"/>
<path d="" fill="#000000" transform="translate(0,0)"/>
<path d="" fill="#000000" transform="translate(0,0)"/>
<path d="" fill="#000000" transform="translate(0,0)"/>
<path d="" fill="#000000" transform="translate(0,0)"/>
<path d="" fill="#000000" transform="translate(0,0)"/>
<path d="" fill="#000000" transform="translate(0,0)"/>
<path d="" fill="#000000" transform="translate(0,0)"/>
<path d="" fill="#000000" transform="translate(0,0)"/>
<path d="" fill="#000000" transform="translate(0,0)"/>
<path d="" fill="#000000" transform="translate(0,0)"/>
<path d="" fill="#000000" transform="translate(0,0)"/>
<path d="" fill="#000000" transform="translate(0,0)"/>
<path d="" fill="#000000" transform="translate(0,0)"/>
<path d="" fill="#000000" transform="translate(0,0)"/>
<path d="" fill="#000000" transform="translate(0,0)"/>
<path d="" fill="#000000" transform="translate(0,0)"/>
<path d="" fill="#000000" transform="translate(0,0)"/>
<path d="" fill="#000000" transform="translate(0,0)"/>
<path d="" fill="#000000" transform="translate(0,0)"/>
<path d="" fill="#000000" transform="translate(0,0)"/>
<path d="" fill="#000000" transform="translate(0,0)"/>
<path d="" fill="#000000" transform="translate(0,0)"/>
<path d="" fill="#000000" transform="translate(0,0)"/>
<path d="" fill="#000000" transform="translate(0,0)"/>
<path d="" fill="#000000" transform="translate(0,0)"/>
<path d="" fill="#000000" transform="translate(0,0)"/>
<path d="" fill="#000000" transform="translate(0,0)"/>
<path d="" fill="#000000" transform="translate(0,0)"/>
<path d="" fill="#000000" transform="translate(0,0)"/>
<path d="" fill="#000000" transform="translate(0,0)"/>
<path d="" fill="#000000" transform="translate(0,0)"/>
<path d="" fill="#000000" transform="translate(0,0)"/>
<path d="" fill="#000000" transform="translate(0,0)"/>
<path d="" fill="#000000" transform="translate(0,0)"/>
<path d="" fill="#000000" transform="translate(0,0)"/>
<path d="" fill="#000000" transform="translate(0,0)"/>
<path d="" fill="#000000" transform="translate(0,0)"/>
<path d="" fill="#000000" transform="translate(0,0)"/>
<path d="" fill="#000000" transform="translate(0,0)"/>
<path d="" fill="#000000" transform="translate(0,0)"/>
<path d="" fill="#000000" transform="translate(0,0)"/>
<path d="" fill="#000000" transform="translate(0,0)"/>
<path d="" fill="#000000" transform="translate(0,0)"/>
<path d="" fill="#000000" transform="translate(0,0)"/>
<path d="" fill="#000000" transform="translate(0,0)"/>
<path d="" fill="#000000" transform="translate(0,0)"/>
<path d="" fill="#000000" transform="translate(0,0)"/>
<path d="" fill="#000000" transform="translate(0,0)"/>
<path d="" fill="#000000" transform="translate(0,0)"/>
<path d="" fill="#000000" transform="translate(0,0)"/>
<path d="" fill="#000000" transform="translate(0,0)"/>
<path d="" fill="#000000" transform="translate(0,0)"/>
<path d="" fill="#000000" transform="translate(0,0)"/>
<path d="" fill="#000000" transform="translate(0,0)"/>
<path d="" fill="#000000" transform="translate(0,0)"/>
<path d="" fill="#000000" transform="translate(0,0)"/>
<path d="" fill="#000000" transform="translate(0,0)"/>
<path d="" fill="#000000" transform="translate(0,0)"/>
<path d="" fill="#000000" transform="translate(0,0)"/>
<path d="" fill="#000000" transform="translate(0,0)"/>
<path d="" fill="#000000" transform="translate(0,0)"/>
<path d="" fill="#000000" transform="translate(0,0)"/>
<path d="" fill="#000000" transform="translate(0,0)"/>
<path d="" fill="#000000" transform="translate(0,0)"/>
<path d="" fill="#000000" transform="translate(0,0)"/>
<path d="" fill="#000000" transform="translate(0,0)"/>
<path d="" fill="#000000" transform="translate(0,0)"/>
<path d="" fill="#000000" transform="translate(0,0)"/>
<path d="" fill="#000000" transform="translate(0,0)"/>
<path d="" fill="#000000" transform="translate(0,0)"/>
<path d="" fill="#000000" transform="translate(0,0)"/>
<path d="" fill="#000000" transform="translate(0,0)"/>
<path d="" fill="#000000" transform="translate(0,0)"/>
<path d="" fill="#000000" transform="translate(0,0)"/>
<path d="" fill="#000000" transform="translate(0,0)"/>
<path d="" fill="#000000" transform="translate(0,0)"/>
<path d="" fill="#000000" transform="translate(0,0)"/>
<path d="" fill="#000000" transform="translate(0,0)"/>
<path d="" fill="#000000" transform="translate(0,0)"/>
<path d="" fill="#000000" transform="translate(0,0)"/>
<path d="" fill="#000000" transform="translate(0,0)"/>
<path d="" fill="#000000" transform="translate(0,0)"/>
<path d="" fill="#000000" transform="translate(0,0)"/>
<path d="" fill="#000000" transform="translate(0,0)"/>
<path d="" fill="#000000" transform="translate(0,0)"/>
<path d="" fill="#000000" transform="translate(0,0)"/>
</svg>
